<svg xmlns="http://www.w3.org/2000/svg" width="166" height="36" viewBox="0 0 166 36" fill="none"><g clip-path="url(#clip0_2234_3440)"><path d="M35.3164 36.0002V12.3486H48.0826C49.9008 12.3486 51.4704 12.5054 52.7522 12.8191C54.0602 13.1327 55.1459 13.6031 55.9699 14.2172C56.8202 14.8445 57.4349 15.6285 57.8273 16.5432C58.2197 17.4579 58.4159 18.5163 58.4159 19.7054C58.4159 20.8945 58.2197 21.953 57.8273 22.8677C57.4349 23.7955 56.8071 24.5795 55.9699 25.2198C55.1328 25.847 54.0602 26.3174 52.7522 26.631C51.4573 26.9446 49.8877 27.1014 48.0826 27.1014H37.9455V35.9871H35.3164V36.0002ZM46.7484 24.6187C47.3632 24.6187 48.8674 24.6187 48.8674 24.6187C49.5084 24.6187 50.1493 24.5795 50.7902 24.5141C51.4573 24.4488 52.0982 24.3181 52.713 24.1352C53.3016 23.9653 53.8248 23.6909 54.2826 23.325C54.7273 22.9722 55.0936 22.5018 55.3552 21.9269C55.6299 21.3519 55.7607 20.594 55.7607 19.6924C55.7607 18.6339 55.5906 17.7846 55.2505 17.1573C54.9105 16.5301 54.3872 16.0466 53.6809 15.7069C52.9484 15.3541 52.0067 15.1189 50.8818 15.0013C49.7438 14.8837 48.3573 14.8183 46.7746 14.8183H37.9717V24.5926H46.7746L46.7484 24.6187Z" fill="#EEA016"></path><path d="M58.1544 19.7189C58.1544 20.8819 57.9713 21.9011 57.592 22.7766C57.2127 23.6652 56.6241 24.41 55.8131 25.0111C55.0021 25.6122 53.9688 26.0695 52.6869 26.3831C51.4182 26.6967 49.8747 26.8405 48.0827 26.8405H37.684V35.7261H35.5781V12.6104H48.0827C49.8747 12.6104 51.4182 12.7672 52.6869 13.0677C53.9688 13.3813 55.0021 13.8256 55.8131 14.4267C56.6241 15.0147 57.2127 15.7595 57.592 16.6481C57.9713 17.5367 58.1544 18.5559 58.1544 19.7058V19.7189ZM56.0093 19.7189C56.0093 18.6212 55.8262 17.7327 55.4599 17.0532C55.0937 16.3737 54.5312 15.8641 53.7726 15.4982C53.0139 15.1323 52.046 14.884 50.8819 14.7664C49.7178 14.6358 48.3443 14.5835 46.7355 14.5835H37.684V24.8804H46.7355C47.3502 24.8804 48.0173 24.8804 48.7237 24.8804C49.43 24.8804 50.1232 24.8543 50.8034 24.7759C51.4836 24.6975 52.1507 24.5799 52.7654 24.3839C53.3933 24.2009 53.9426 23.9134 54.4135 23.5345C54.8975 23.1555 55.2768 22.659 55.5646 22.0318C55.8523 21.4045 55.9962 20.6336 55.9962 19.6927L56.0093 19.7189Z" fill="#EEA016"></path><path d="M66.2111 12.3486H63.582V36.0002H66.2111V12.3486Z" fill="#EEA016"></path><path d="M63.8438 35.7392V12.6104H65.9496V35.7392H63.8438Z" fill="#EEA016"></path><path d="M95.2497 36.0002L95.2236 35.765C95.1189 34.5497 94.805 33.4259 94.321 32.4459C93.824 31.4659 93.1961 30.5773 92.4244 29.8194C91.6527 29.0615 90.7502 28.382 89.7561 27.8332C88.7489 27.2713 87.6763 26.814 86.5514 26.4481C85.4135 26.0822 84.2362 25.8078 83.0329 25.6379C81.8295 25.4681 80.613 25.3766 79.4489 25.3766H76.1135V36.0002H73.4844V12.3486H76.1135V23.0114H78.8734C80.0506 23.0114 81.2409 22.9069 82.4181 22.6847C83.5822 22.4757 84.7202 22.149 85.7928 21.7439C86.8523 21.3388 87.8594 20.8161 88.7751 20.2151C89.6907 19.627 90.5147 18.9214 91.208 18.1504C91.9012 17.3795 92.4898 16.5171 92.9345 15.5893C93.3793 14.6615 93.6539 13.6553 93.7717 12.5838L93.7978 12.3486H96.4793L96.4531 12.6361C96.3354 13.8775 96.0607 15.0274 95.616 16.0466C95.1712 17.0528 94.635 17.9806 93.994 18.7907C93.3531 19.6009 92.6337 20.3196 91.8489 20.9338C91.0641 21.5348 90.2662 22.0706 89.4552 22.5018C88.6442 22.933 87.8464 23.312 87.0746 23.5994C86.7215 23.7301 86.3814 23.8477 86.0544 23.9523C86.5122 24.0568 86.9962 24.1744 87.4932 24.3181C88.4088 24.5664 89.3375 24.9192 90.24 25.3374C91.1426 25.7555 92.0582 26.2913 92.9215 26.9185C93.7847 27.5327 94.5826 28.2775 95.2759 29.1269C95.9691 29.9762 96.5577 30.9432 97.0286 32.0408C97.4995 33.1254 97.8003 34.3799 97.905 35.7388L97.9311 36.0263H95.2497V36.0002Z" fill="#EEA016"></path><path d="M95.4853 35.7392C95.3676 34.4848 95.0667 33.3479 94.5566 32.3287C94.0465 31.3094 93.4055 30.4078 92.6077 29.6238C91.8098 28.8398 90.9072 28.1603 89.887 27.5984C88.8667 27.0365 87.7811 26.5661 86.63 26.1871C85.479 25.8212 84.3018 25.5468 83.0722 25.377C81.8427 25.2071 80.6393 25.1156 79.449 25.1156H75.852V35.7392H73.7461V12.6104H75.852V23.2731H78.8735C80.0769 23.2731 81.2672 23.1686 82.4705 22.9465C83.6608 22.7243 84.7988 22.4107 85.8845 21.9926C86.9701 21.5744 87.9773 21.0517 88.9191 20.4376C89.8608 19.8234 90.6849 19.1309 91.4043 18.3338C92.1237 17.5367 92.7123 16.6742 93.1701 15.7203C93.6279 14.7664 93.9157 13.7341 94.0334 12.6234H96.1916C96.0739 13.8517 95.8123 14.9494 95.3806 15.9425C94.949 16.9356 94.4127 17.8372 93.7849 18.6212C93.157 19.4183 92.4507 20.1109 91.679 20.712C90.9072 21.3131 90.1224 21.8227 89.3245 22.267C88.5266 22.6982 87.7418 23.0641 86.9832 23.3385C86.2245 23.626 85.5313 23.835 84.9165 23.9918C85.6883 24.1094 86.5385 24.3055 87.441 24.5537C88.3435 24.802 89.246 25.1418 90.1486 25.5599C91.0511 25.978 91.9275 26.5007 92.7908 27.1149C93.641 27.729 94.4127 28.4477 95.0929 29.284C95.773 30.1203 96.3486 31.0612 96.8064 32.1327C97.2642 33.2042 97.5519 34.4064 97.6697 35.7523H95.5114L95.4853 35.7392Z" fill="#EEA016"></path><path d="M112.121 36.0002L100.297 12.3486H103.24L113.913 33.7134L124.587 12.3486H127.517L115.588 36.0002H112.121Z" fill="#EEA016"></path><path d="M115.434 35.7392H112.282L100.719 12.6104H103.073L113.904 34.2888L124.734 12.6104H127.075L115.408 35.7392H115.434Z" fill="#EEA016"></path><path d="M134.266 12.3486H131.637V36.0002H134.266V12.3486Z" fill="#EEA016"></path><path d="M131.898 35.7392V12.6104H134.004V35.7392H131.898Z" fill="#EEA016"></path><path d="M163.32 36.0002L163.294 35.765C163.189 34.5497 162.875 33.4259 162.391 32.4459C161.894 31.4659 161.266 30.5773 160.495 29.8194C159.723 29.0615 158.834 28.3951 157.826 27.8332C156.819 27.2844 155.747 26.814 154.622 26.4481C153.497 26.0822 152.307 25.8078 151.103 25.6379C149.9 25.4681 148.683 25.3766 147.519 25.3766H144.184V36.0002H141.555V12.3486H144.184V23.0114H146.944C148.121 23.0114 149.311 22.9069 150.488 22.6847C151.653 22.4757 152.791 22.149 153.85 21.7439C154.91 21.3388 155.917 20.8161 156.832 20.2151C157.748 19.627 158.572 18.9214 159.278 18.1504C159.972 17.3795 160.56 16.5171 161.005 15.5893C161.45 14.6615 161.724 13.6553 161.842 12.5838L161.868 12.3486H164.55L164.523 12.6361C164.406 13.8775 164.131 15.0274 163.686 16.0466C163.242 17.0528 162.692 17.9806 162.064 18.7907C161.423 19.6009 160.704 20.3196 159.919 20.9338C159.134 21.5348 158.336 22.0706 157.526 22.5018C156.728 22.933 155.93 23.2989 155.145 23.5994C154.792 23.7301 154.452 23.8477 154.125 23.9523C154.583 24.0568 155.066 24.1744 155.564 24.3181C156.479 24.5664 157.395 24.9192 158.31 25.3374C159.226 25.7555 160.115 26.2913 160.992 26.9054C161.855 27.5196 162.653 28.2644 163.346 29.1138C164.039 29.9632 164.628 30.9432 165.099 32.0278C165.57 33.1123 165.858 34.3537 165.975 35.7258L166.001 36.0132H163.32V36.0002Z" fill="#EEA016"></path><path d="M163.552 35.7392C163.434 34.4848 163.133 33.3479 162.623 32.3287C162.113 31.3094 161.472 30.4078 160.674 29.6238C159.876 28.8398 158.974 28.1603 157.953 27.5984C156.933 27.0365 155.847 26.5661 154.696 26.1871C153.545 25.8212 152.368 25.5468 151.139 25.377C149.909 25.2071 148.706 25.1156 147.515 25.1156H143.918V35.7392H141.812V12.6104H143.918V23.2731H146.94C148.143 23.2731 149.334 23.1686 150.537 22.9465C151.727 22.7243 152.865 22.4107 153.951 21.9926C155.037 21.5744 156.044 21.0517 156.985 20.4376C157.927 19.8234 158.751 19.1309 159.471 18.3338C160.19 17.5367 160.779 16.6742 161.236 15.7203C161.694 14.7664 161.982 13.7341 162.1 12.6234H164.258C164.14 13.8517 163.879 14.9494 163.447 15.9425C163.015 16.9356 162.479 17.8372 161.851 18.6212C161.223 19.4053 160.517 20.1109 159.745 20.712C158.974 21.3131 158.189 21.8227 157.391 22.267C156.593 22.7113 155.808 23.0641 155.05 23.3385C154.291 23.6129 153.598 23.835 152.983 23.9918C153.755 24.1094 154.592 24.3055 155.507 24.5537C156.423 24.802 157.312 25.1418 158.215 25.5599C159.118 25.978 159.994 26.5007 160.857 27.1149C161.72 27.729 162.479 28.4477 163.159 29.284C163.839 30.1203 164.415 31.0612 164.873 32.1327C165.331 33.2042 165.618 34.4064 165.736 35.7523H163.578L163.552 35.7392Z" fill="#EEA016"></path><path d="M16.3398 12.6224C12.3765 12.6224 9.17188 15.8239 9.17188 19.7832C9.17188 20.8155 9.39424 21.7956 9.77356 22.6711L9.89128 22.9063L15.1233 33.5168L16.3398 35.9865L17.5562 33.5168L22.7883 22.9063L22.8406 22.8018C23.2723 21.8871 23.5077 20.8547 23.5077 19.7702C23.5077 15.8108 20.3031 12.6094 16.3398 12.6094V12.6224ZM13.2006 19.7832C13.2006 18.0584 14.6001 16.6602 16.3398 16.6602C18.0794 16.6602 19.4659 18.0584 19.4659 19.7832C19.4659 21.5081 18.0664 22.9194 16.3398 22.9194C14.6132 22.9194 13.2006 21.5212 13.2006 19.7832Z" fill="#EEA016"></path><path d="M32.6611 21.6131H29.3387L16.3371 4.40363L3.33543 21.6131H0L16.3371 0L32.6611 21.6131Z" fill="#EEA016"></path></g><defs><clipPath id="clip0_2234_3440"><rect width="166" height="36" fill="white"></rect></clipPath></defs></svg>