<svg xmlns="http://www.w3.org/2000/svg" width="130" height="136" viewBox="0 0 130 136" fill="none"><g clip-path="url(#clip0_1293_4990)"><path d="M104.515 1.39062C100.774 1.39062 97.9678 4.17086 97.9678 7.87785C97.9678 11.3531 101.007 14.3651 104.515 14.3651C108.022 14.3651 111.061 11.5848 111.061 7.87785C111.061 4.40255 108.256 1.39062 104.515 1.39062ZM104.515 12.975C101.709 12.975 99.3706 10.6581 99.3706 7.87785C99.3706 5.09761 101.709 2.78074 104.515 2.78074C107.32 2.78074 109.658 5.09761 109.658 7.87785C109.658 10.6581 107.32 12.975 104.515 12.975Z" fill="#EEA016"></path><path d="M23.3809 7.18164C21.0428 7.18164 18.9385 9.03513 18.9385 11.5837C18.9385 14.1322 20.809 15.9857 23.3809 15.9857C25.9529 15.9857 27.8234 13.9005 27.8234 11.5837C27.8234 9.03513 25.7191 7.18164 23.3809 7.18164ZM23.3809 14.5956C21.7442 14.5956 20.3414 13.2055 20.3414 11.5837C20.3414 9.96188 21.7442 8.57176 23.3809 8.57176C25.0176 8.57176 26.1867 9.73019 26.4205 11.5837C26.4205 13.2055 25.0176 14.5956 23.3809 14.5956Z" fill="#EEA016"></path><path d="M18.939 34.7524C20.6177 34.7524 21.9785 33.4039 21.9785 31.7404C21.9785 30.077 20.6177 28.7285 18.939 28.7285C17.2603 28.7285 15.8994 30.077 15.8994 31.7404C15.8994 33.4039 17.2603 34.7524 18.939 34.7524Z" fill="#EEA016"></path><path d="M27.8237 34.7524C29.5025 34.7524 30.8633 33.4039 30.8633 31.7404C30.8633 30.077 29.5025 28.7285 27.8237 28.7285C26.145 28.7285 24.7842 30.077 24.7842 31.7404C24.7842 33.4039 26.145 34.7524 27.8237 34.7524Z" fill="#EEA016"></path><path d="M36.4751 34.7524C38.1538 34.7524 39.5147 33.4039 39.5147 31.7404C39.5147 30.077 38.1538 28.7285 36.4751 28.7285C34.7964 28.7285 33.4355 30.077 33.4355 31.7404C33.4355 33.4039 34.7964 34.7524 36.4751 34.7524Z" fill="#EEA016"></path><path d="M61.2595 112.832C61.2595 113.527 60.7919 114.222 59.8566 114.222H29.2271C28.5257 114.222 27.8242 113.527 27.8242 112.832C27.8242 112.136 28.5257 111.441 29.2271 111.441H59.8566C60.558 111.441 61.2595 112.136 61.2595 112.832Z" fill="#EEA016"></path><path d="M61.2595 104.259C61.2595 104.954 60.7919 105.649 59.8566 105.649H29.2271C28.5257 105.649 27.8242 104.954 27.8242 104.259C27.8242 103.564 28.5257 102.869 29.2271 102.869H59.8566C60.558 102.869 61.2595 103.564 61.2595 104.259Z" fill="#EEA016"></path><path d="M61.2595 95.4546C61.2595 96.1496 60.7919 96.8447 59.8566 96.8447H29.2271C28.5257 96.8447 27.8242 96.1496 27.8242 95.4546C27.8242 94.7595 28.5257 94.0645 29.2271 94.0645H59.8566C60.558 94.0645 61.2595 94.7595 61.2595 95.4546Z" fill="#EEA016"></path><path d="M61.2595 86.8823C61.2595 87.5774 60.7919 88.2724 59.8566 88.2724H29.2271C28.5257 88.2724 27.8242 87.5774 27.8242 86.8823C27.8242 86.1872 28.5257 85.4922 29.2271 85.4922H59.8566C60.558 85.4922 61.2595 86.1872 61.2595 86.8823Z" fill="#EEA016"></path><path d="M61.2595 112.832C61.2595 113.527 60.7919 114.222 59.8566 114.222H29.2271C28.5257 114.222 27.8242 113.527 27.8242 112.832C27.8242 112.136 28.5257 111.441 29.2271 111.441H59.8566C60.558 111.441 61.2595 112.136 61.2595 112.832Z" fill="#EEA016"></path><path d="M61.2595 104.259C61.2595 104.954 60.7919 105.649 59.8566 105.649H29.2271C28.5257 105.649 27.8242 104.954 27.8242 104.259C27.8242 103.564 28.5257 102.869 29.2271 102.869H59.8566C60.558 102.869 61.2595 103.564 61.2595 104.259Z" fill="#EEA016"></path><path d="M61.2595 95.4546C61.2595 96.1496 60.7919 96.8447 59.8566 96.8447H29.2271C28.5257 96.8447 27.8242 96.1496 27.8242 95.4546C27.8242 94.7595 28.5257 94.0645 29.2271 94.0645H59.8566C60.558 94.0645 61.2595 94.7595 61.2595 95.4546Z" fill="#EEA016"></path><path d="M61.2595 86.8823C61.2595 87.5774 60.7919 88.2724 59.8566 88.2724H29.2271C28.5257 88.2724 27.8242 87.5774 27.8242 86.8823C27.8242 86.1872 28.5257 85.4922 29.2271 85.4922H59.8566C60.558 85.4922 61.2595 86.1872 61.2595 86.8823Z" fill="#EEA016"></path><path d="M127.895 20.1562C129.064 20.1562 130 21.083 130 22.2414C130 23.3999 129.064 24.3266 127.895 24.3266C126.726 24.3266 125.791 23.3999 125.791 22.2414C125.791 21.083 126.726 20.1562 127.895 20.1562Z" fill="#EEA016"></path><path d="M83.9393 8.57227C85.1083 8.57227 86.0436 9.49901 86.0436 10.6574C86.0436 11.8159 85.1083 12.7426 83.9393 12.7426C82.7702 12.7426 81.835 11.8159 81.835 10.6574C81.835 9.49901 82.7702 8.57227 83.9393 8.57227Z" fill="#EEA016"></path><path d="M57.7518 14.3652C58.9208 14.3652 59.8561 15.292 59.8561 16.4504C59.8561 17.6088 58.9208 18.5356 57.7518 18.5356C56.5827 18.5356 55.6475 17.6088 55.6475 16.4504C55.6475 15.292 56.5827 14.3652 57.7518 14.3652Z" fill="#EEA016"></path><path d="M43.0213 5.79297C44.1904 5.79297 45.1256 6.71972 45.1256 7.87815C45.1256 9.03658 44.1904 9.96333 43.0213 9.96333C41.8522 9.96333 40.917 9.03658 40.917 7.87815C40.917 6.71972 41.8522 5.79297 43.0213 5.79297Z" fill="#EEA016"></path><path d="M36.4751 34.7524C38.1538 34.7524 39.5147 33.4039 39.5147 31.7404C39.5147 30.077 38.1538 28.7285 36.4751 28.7285C34.7964 28.7285 33.4355 30.077 33.4355 31.7404C33.4355 33.4039 34.7964 34.7524 36.4751 34.7524Z" fill="#EEA016"></path><path d="M27.8237 34.7524C29.5025 34.7524 30.8633 33.4039 30.8633 31.7404C30.8633 30.077 29.5025 28.7285 27.8237 28.7285C26.145 28.7285 24.7842 30.077 24.7842 31.7404C24.7842 33.4039 26.145 34.7524 27.8237 34.7524Z" fill="#EEA016"></path><path d="M18.939 34.7524C20.6177 34.7524 21.9785 33.4039 21.9785 31.7404C21.9785 30.077 20.6177 28.7285 18.939 28.7285C17.2603 28.7285 15.8994 30.077 15.8994 31.7404C15.8994 33.4039 17.2603 34.7524 18.939 34.7524Z" fill="#EEA016"></path><path d="M2.10432 20.1562C3.27338 20.1562 4.20863 21.083 4.20863 22.2414C4.20863 23.3999 3.27338 24.3266 2.10432 24.3266C0.935252 24.3266 0 23.3999 0 22.2414C0 21.083 0.935252 20.1562 2.10432 20.1562Z" fill="#EEA016"></path><path d="M23.3815 5.56055C20.1081 5.56055 17.5361 8.1091 17.5361 11.3527C17.5361 14.5963 20.1081 17.1449 23.3815 17.1449C26.6548 17.1449 29.2268 14.5963 29.2268 11.3527C29.2268 8.1091 26.6548 5.56055 23.3815 5.56055ZM20.3419 11.5844C20.3419 9.96259 21.7448 8.57247 23.3815 8.57247C25.0181 8.57247 26.1872 9.7309 26.421 11.5844C26.421 13.2062 25.0181 14.5963 23.3815 14.5963C21.7448 14.5963 20.3419 13.2062 20.3419 11.5844Z" fill="#EEA016"></path><path d="M104.514 0C100.072 0 96.5645 3.4753 96.5645 7.87734C96.5645 12.2794 100.072 15.7547 104.514 15.7547C108.957 15.7547 112.464 12.2794 112.464 7.87734C112.464 3.4753 108.957 0 104.514 0ZM104.514 12.9744C101.708 12.9744 99.3702 10.6576 99.3702 7.87734C99.3702 5.0971 101.708 2.78024 104.514 2.78024C107.32 2.78024 109.658 5.0971 109.658 7.87734C109.658 10.6576 107.32 12.9744 104.514 12.9744Z" fill="#EEA016"></path><path d="M113.4 21.5469H15.1982C10.0543 21.5469 5.8457 25.7172 5.8457 30.8143V126.733C5.8457 131.83 10.0543 136 15.1982 136H113.4C118.544 136 122.752 131.83 122.752 126.733V30.8143C122.752 25.7172 118.544 21.5469 113.4 21.5469ZM55.4141 24.3271H113.4C116.977 24.3271 119.689 27.0842 119.923 30.351H55.4141V24.3271ZM8.65146 31.046C8.65146 27.339 11.691 24.5588 15.1982 24.5588V24.3271H52.6083V39.1551H8.65146V31.046ZM119.946 126.964C119.946 130.671 116.907 133.451 113.4 133.451H15.1982C11.4572 133.451 8.65146 130.44 8.65146 126.964V41.9353H119.946V126.964ZM119.946 39.1551H55.4141V33.1312H119.946V39.1551Z" fill="#EEA016"></path><path d="M109.658 50.5078H18.939C18.2376 50.5078 17.5361 51.2029 17.5361 51.8979V123.026C17.5361 123.721 18.2376 124.416 18.939 124.416H109.658C110.36 124.416 111.061 123.721 111.061 122.794V51.8979C111.061 51.2029 110.36 50.5078 109.658 50.5078ZM108.022 121.404H20.3419V53.5197H108.022V121.404Z" fill="#EEA016"></path><path d="M99.6044 98.0025L91.421 103.795L94.4606 113.062C94.6944 113.757 94.4606 114.221 93.9929 114.684C93.7591 114.684 93.2915 114.916 93.0577 114.916C92.8239 114.916 92.3563 114.916 92.1224 114.684L84.1728 108.892L76.2232 114.684C75.7555 115.147 75.0541 115.147 74.5865 114.684C74.1188 114.221 73.885 113.757 74.1188 113.062L77.1584 103.795L69.2088 98.0025C68.7411 97.5392 68.5073 97.0758 68.7411 96.3807C68.975 95.6857 69.4426 95.454 70.144 95.454H79.9642L83.0037 86.1865C83.2375 85.4915 83.7052 85.2598 84.4066 85.2598C85.108 85.2598 85.5757 85.7231 85.8095 86.1865L88.8491 95.454H98.6692C99.3706 95.454 99.8383 95.9173 100.072 96.3807C100.306 97.0758 100.072 97.5392 99.6044 98.0025Z" fill="#EEA016"></path><path d="M80.4317 59.3125H27.8238C27.1223 59.3125 26.4209 60.0076 26.4209 60.7026V78.0791C26.4209 78.7742 27.1223 79.4692 27.8238 79.4692H80.4317C81.1331 79.4692 81.8346 78.7742 81.8346 78.0791V60.7026C81.8346 60.0076 81.1331 59.3125 80.4317 59.3125ZM79.0288 76.689H29.2267V62.0927H79.0288V76.689Z" fill="#EEA016"></path><path d="M61.2595 86.8823C61.2595 87.5774 60.7919 88.2724 59.8566 88.2724H29.2271C28.5257 88.2724 27.8242 87.5774 27.8242 86.8823C27.8242 86.1872 28.5257 85.4922 29.2271 85.4922H59.8566C60.558 85.4922 61.2595 86.1872 61.2595 86.8823Z" fill="#EEA016"></path><path d="M61.2595 95.4546C61.2595 96.1496 60.7919 96.8447 59.8566 96.8447H29.2271C28.5257 96.8447 27.8242 96.1496 27.8242 95.4546C27.8242 94.7595 28.5257 94.0645 29.2271 94.0645H59.8566C60.558 94.0645 61.2595 94.7595 61.2595 95.4546Z" fill="#EEA016"></path><path d="M61.2595 104.259C61.2595 104.954 60.7919 105.649 59.8566 105.649H29.2271C28.5257 105.649 27.8242 104.954 27.8242 104.259C27.8242 103.564 28.5257 102.869 29.2271 102.869H59.8566C60.558 102.869 61.2595 103.564 61.2595 104.259Z" fill="#EEA016"></path><path d="M61.2595 112.832C61.2595 113.527 60.7919 114.222 59.8566 114.222H29.2271C28.5257 114.222 27.8242 113.527 27.8242 112.832C27.8242 112.136 28.5257 111.441 29.2271 111.441H59.8566C60.558 111.441 61.2595 112.136 61.2595 112.832Z" fill="#EEA016"></path></g><defs><clipPath id="clip0_1293_4990"><rect width="130" height="136" fill="white"></rect></clipPath></defs></svg>