<svg xmlns="http://www.w3.org/2000/svg" width="140" height="136" viewBox="0 0 140 136" fill="none"><g clip-path="url(#clip0_1293_4919)"><path d="M121.122 41.3691C121.374 42.6342 120.619 43.8993 119.36 44.1523C118.101 44.4054 116.843 43.6463 116.591 42.3812C116.339 41.1161 117.095 39.8509 118.353 39.5979C119.612 39.0919 120.87 40.104 121.122 41.3691Z" fill="#EEA016"></path><path d="M95.951 128.158C96.2027 129.423 95.4476 130.688 94.1891 130.941C92.9305 131.194 91.672 130.435 91.4203 129.17C91.1686 127.905 91.9237 126.639 93.1823 126.386C94.4408 126.133 95.6993 126.892 95.951 128.158Z" fill="#EEA016"></path><path d="M15.9081 1.89838C16.1598 3.1635 15.4047 4.42862 14.1461 4.68164C12.8876 4.93466 11.629 4.17559 11.3773 2.91048C11.1256 1.64536 11.8807 0.380244 13.1393 0.127221C14.3978 -0.378826 15.6564 0.633267 15.9081 1.89838Z" fill="#EEA016"></path><path d="M4.58092 87.1673C4.83263 88.4324 4.07751 89.6975 2.81897 89.9506C1.56043 90.2036 0.301889 89.4445 0.0501808 88.1794C-0.201527 86.9143 0.553597 85.6492 1.81214 85.3961C3.07068 85.1431 4.32922 85.9022 4.58092 87.1673Z" fill="#EEA016"></path><path d="M89.4063 108.928C88.9029 108.928 88.6512 108.675 88.3995 108.422L78.8346 98.8067C78.3312 98.3006 78.3312 97.2885 78.8346 96.5295C79.338 96.0234 80.3448 96.0234 81.1 96.5295L89.658 105.132L109.795 84.8904L101.237 76.2876C100.733 75.7816 100.733 74.7695 101.237 74.0104C101.74 73.5043 102.747 73.5043 103.502 74.0104L113.067 83.6253C113.57 84.1313 113.57 85.1434 113.067 85.9025L90.9166 108.169C90.1615 108.675 89.658 108.928 89.4063 108.928Z" fill="#EEA016"></path><path d="M131.442 111.965L108.033 88.4338C107.782 88.1808 107.278 87.9277 107.027 87.9277C106.926 87.9277 106.8 87.953 106.674 88.0289C106.448 88.1049 106.171 88.282 106.02 88.4338L92.6792 101.844C92.5282 101.996 92.352 102.274 92.2765 102.502C92.201 102.628 92.1758 102.755 92.1758 102.856C92.1758 103.109 92.4275 103.615 92.6792 103.868L116.088 127.399C118.102 129.424 120.871 130.689 123.891 130.689C126.911 130.689 129.68 129.677 131.694 127.399C133.708 125.375 134.714 122.845 134.714 119.809C134.714 116.772 133.456 113.989 131.442 111.965ZM118.102 125.122L96.0773 102.983L95.9514 102.856L107.027 91.7231L107.152 91.8496L129.177 113.989C130.687 115.507 131.442 117.531 131.442 119.556C131.442 121.58 130.687 123.604 129.177 125.122C127.667 126.64 125.653 127.399 123.639 127.399C121.626 127.399 119.612 126.64 118.102 125.122Z" fill="#EEA016"></path><path d="M93.686 18.0924C84.3728 8.47755 71.5356 3.16406 58.1951 3.16406C44.8546 3.16406 32.2692 8.47755 22.7043 18.0924C13.1394 27.4543 7.85352 40.3585 7.85352 53.7687C7.85352 67.1789 13.1394 79.8301 22.7043 89.445C32.0175 99.0599 44.8546 104.373 58.1951 104.373C65.7212 104.373 73.0459 102.729 79.6406 99.6165C79.8924 99.5406 80.1189 99.4141 80.3454 99.3129C80.6223 99.1611 80.8992 99.0346 81.1761 98.8828C81.6795 98.6297 82.1829 98.3514 82.6611 98.0984C86.7136 95.7959 90.2879 93.1138 93.686 89.698C97.3609 86.2316 100.18 82.1579 102.571 77.6288C102.773 77.2493 102.974 76.8697 103.175 76.4649C103.201 76.4143 103.226 76.3384 103.251 76.2878C103.528 75.7058 103.805 75.1239 104.031 74.5419C112.589 55.4387 108.587 33.0714 93.686 18.0924ZM58.1951 101.337C45.358 101.337 33.5277 96.2766 24.718 87.4208C15.9082 78.312 10.874 66.4199 10.874 53.7687C10.874 41.1176 15.6565 28.9724 24.718 20.1166C33.7794 11.2608 45.6097 6.20034 58.1951 6.20034C70.7805 6.20034 82.6108 11.2608 91.6723 20.3696C106.02 34.5389 109.544 56.552 100.734 74.7696C98.4684 79.5771 95.4479 83.6255 91.6723 87.4208C88.1232 90.9884 84.121 93.8982 79.8672 96.1501C79.842 96.1501 79.8168 96.1501 79.7917 96.1754C79.5651 96.3019 79.3134 96.4031 79.0869 96.5297C78.9862 96.5803 78.8855 96.6309 78.7848 96.6562H78.7597C72.3159 99.6165 65.3688 101.337 58.1951 101.337Z" fill="#EEA016"></path><path d="M83.8694 27.9601C77.0733 21.1285 68.0118 17.0801 58.1952 17.0801C48.3786 17.0801 39.3171 20.6224 32.521 27.7071C25.7248 34.7917 21.9492 43.6475 21.9492 53.5154C21.9492 63.3833 25.4731 72.4922 32.521 79.3238C39.5688 86.1554 48.6303 89.9508 58.1952 89.9508C67.7601 89.9508 77.0733 86.1554 83.8694 79.3238C90.6655 72.4922 94.4411 63.6364 94.4411 53.7685C94.4411 43.9005 90.6655 34.7917 83.8694 27.9601ZM34.7863 77.0466C30.2304 72.2898 27.1092 66.369 25.8507 59.9422C25.599 58.7277 25.448 57.5385 25.3473 56.2987C25.3473 56.2987 25.3221 56.1722 25.3221 56.0963C25.2466 55.236 25.2214 54.3757 25.2214 53.5154C25.2214 52.6551 25.2466 51.8455 25.3221 51.0358V50.9346C25.3976 49.796 25.5235 48.6827 25.7248 47.5694C26.8575 40.9655 29.9284 34.8676 34.7863 29.9843C41.079 23.9117 49.3854 20.3694 58.1952 20.3694C67.005 20.3694 75.3113 23.9117 81.604 29.9843C86.2354 34.8423 89.3818 40.8643 90.59 47.4176C90.8165 48.5815 90.9676 49.7454 91.0682 50.9346V51.0358C91.1437 51.8455 91.1689 52.6805 91.1689 53.5154C91.1689 54.3504 91.1437 55.1854 91.0682 55.9951C91.0682 56.1216 91.0682 56.2481 91.0431 56.3746C90.9675 57.5385 90.8165 58.6771 90.6152 59.7904C89.4321 66.2678 86.3865 72.2392 81.604 77.0466C75.3113 83.1192 67.005 86.6615 58.1952 86.6615C49.3854 86.6615 41.079 83.3722 34.7863 77.0466Z" fill="#EEA016"></path><path d="M128.925 10.7539C122.884 10.7539 117.85 15.8144 117.85 21.8869C117.85 27.9595 122.884 33.02 128.925 33.02C134.966 33.02 140 27.9595 140 21.8869C140 15.8144 134.966 10.7539 128.925 10.7539ZM128.925 29.7307C124.646 29.7307 121.122 26.1883 121.122 21.8869C121.122 17.5855 124.646 14.0432 128.925 14.0432C133.456 14.0432 136.979 17.5855 136.728 21.8869C136.728 26.1883 133.204 29.7307 128.925 29.7307Z" fill="#EEA016"></path><path d="M14.1455 107.662C6.3425 107.662 0.0498047 113.988 0.0498047 121.831C0.0498047 129.675 6.3425 136.001 14.1455 136.001C21.9484 136.001 28.2411 129.422 28.2411 121.831C28.2411 114.241 21.9484 107.662 14.1455 107.662ZM14.1455 132.964C8.10446 132.964 3.0703 127.904 3.0703 121.831C3.0703 115.759 8.10446 110.698 14.1455 110.698C20.1864 110.698 25.2206 115.506 25.2206 121.831C25.2206 128.157 20.1864 132.964 14.1455 132.964Z" fill="#EEA016"></path></g><defs><clipPath id="clip0_1293_4919"><rect width="140" height="136" fill="white"></rect></clipPath></defs></svg>