<svg xmlns="http://www.w3.org/2000/svg" width="136" height="136" viewBox="0 0 136 136" fill="none"><g clip-path="url(#clip0_1293_4935)"><path d="M133.157 36.8496V97.2099C133.157 97.5174 133.133 97.8249 133.109 98.1324C133.086 98.3926 133.038 98.6291 133.015 98.8893C132.92 99.3386 132.801 99.788 132.659 100.214C132.588 100.427 132.493 100.663 132.399 100.876C132.328 101.065 132.233 101.278 132.138 101.467C131.167 103.501 129.437 105.086 127.305 105.867C126.878 106.009 126.428 106.15 125.978 106.245C125.385 106.363 124.769 106.434 124.153 106.434H9.00348C8.38746 106.434 7.77143 106.363 7.17909 106.245C6.72892 106.15 6.27875 106.032 5.85226 105.867C3.15122 104.779 1.0662 102.437 0.284321 99.5752C0.21324 99.3386 0.189547 99.1258 0.14216 98.8893C0.0947735 98.6291 0.0710801 98.3926 0.0473868 98.1324C0 97.8959 0 97.683 0 97.4465V41.6273C0 40.9178 0.710801 40.2082 1.4216 40.2082C2.1324 40.2082 2.84321 40.9178 2.84321 41.6273V97.2099C2.84321 100.521 5.68641 103.36 9.00348 103.36H124.153C127.47 103.36 130.314 100.521 130.314 97.2099V41.107C130.314 41.107 130.479 40.9651 130.574 40.8705C130.716 40.6813 130.882 40.5157 131.072 40.4211H131.095C131.332 40.1609 131.546 39.948 131.735 39.6879C132.422 38.86 132.896 37.8667 133.157 36.8496Z" fill="#EEA016"></path><path d="M73.1411 11.8262C72.9041 12.2756 72.6672 12.7486 72.4777 13.2453C72.3829 13.3872 72.3355 13.5528 72.2644 13.7183C72.0275 13.9549 72.0275 14.4279 72.0275 14.6644H62.3132C61.6024 14.6644 60.8916 13.9549 60.8916 13.2453C60.8916 12.5357 61.6024 11.8262 62.3132 11.8262H73.1411Z" fill="#EEA016"></path><path d="M133.157 20.814V33.1604C132.896 32.1197 132.423 31.15 131.735 30.2985C131.356 29.7545 130.859 29.2578 130.314 28.8794V20.814C130.314 17.5027 127.471 14.6644 124.154 14.6644H118.965C118.396 14.0968 117.733 13.6237 117.022 13.2453C115.648 12.4884 114.037 12.0627 112.307 12.0627C110.719 12.0627 109.132 12.4648 107.758 13.2453C107.284 13.5055 106.81 13.813 106.384 14.1914C105.91 14.4279 105.436 14.6644 105.199 14.4279C104.725 14.1914 104.488 13.9549 104.251 13.4818C104.204 13.4109 104.18 13.3163 104.133 13.2453C103.919 12.7486 103.683 12.2756 103.422 11.8262H124.154C129.129 11.8262 133.157 15.847 133.157 20.814Z" fill="#EEA016"></path><path d="M131.024 129.141C131.972 130.087 131.972 131.506 131.024 132.216C130.077 133.162 128.655 133.162 127.944 132.216C126.996 131.27 126.996 129.851 127.944 129.141C128.655 128.195 130.077 128.195 131.024 129.141Z" fill="#EEA016"></path><path d="M101.408 117.315C102.356 118.261 102.356 119.68 101.408 120.39C100.46 121.336 99.0388 121.336 98.328 120.39C97.3803 119.444 97.3803 118.025 98.328 117.315C99.0388 116.369 100.46 116.369 101.408 117.315Z" fill="#EEA016"></path><path d="M69.6583 96.0279C69.6583 96.974 69.1845 97.447 68.7106 98.1566C68.2367 98.6296 67.5259 99.1027 66.5782 99.1027C64.9197 99.1027 63.498 97.6836 63.498 96.0279C63.498 95.3183 63.735 94.3723 64.4458 93.8992C64.9197 93.4262 65.6305 92.9531 66.5782 92.9531C67.289 92.9531 67.9998 93.4262 68.7106 93.8992C69.1845 94.3723 69.6583 95.0818 69.6583 96.0279Z" fill="#EEA016"></path><path d="M42.1738 118.733C43.1215 119.679 43.1215 121.099 42.1738 121.808C41.226 122.754 39.8044 122.754 39.0936 121.808C38.1459 120.862 38.1459 119.443 39.0936 118.733C39.8044 118.024 41.226 118.024 42.1738 118.733Z" fill="#EEA016"></path><path d="M6.63371 114.239C7.58145 115.185 7.58145 116.604 6.63371 117.314C5.68598 118.26 4.26438 118.26 3.55357 117.314C2.60584 116.368 2.60584 114.949 3.55357 114.239C4.26438 113.53 5.68598 113.53 6.63371 114.239Z" fill="#EEA016"></path><path d="M58.7599 112.111C58.7599 112.111 58.7599 112.253 58.7362 112.347C58.7125 113.009 58.4282 113.766 57.5753 113.766H49.9934C45.9655 113.766 42.6484 110.455 42.6484 106.434V104.779C42.6484 104.069 43.3592 103.359 44.07 103.359C44.7808 103.359 45.4916 104.069 45.4916 104.779V106.434C45.4916 108.799 47.3871 110.692 49.7565 110.692H57.3383C57.5753 110.692 57.8359 110.786 58.0491 110.928C58.4519 111.188 58.7599 111.638 58.7599 112.111Z" fill="#EEA016"></path><path d="M90.0353 105.015V106.67C90.2723 110.455 86.9552 113.766 82.9273 113.766H75.3454C74.6346 113.766 73.9238 113.057 73.9238 112.347C73.9238 112.276 73.9238 112.181 73.9238 112.11C74.066 111.496 74.682 110.928 75.3217 110.928H82.9036C85.273 110.928 87.1684 109.036 87.1684 106.67V105.015C87.1684 105.015 87.1684 104.849 87.1921 104.778C87.3343 104.163 87.9503 103.596 88.59 103.596C89.2297 103.596 89.8458 104.163 89.9879 104.778C90.0116 104.849 90.0116 104.944 90.0116 105.015H90.0353Z" fill="#EEA016"></path><path d="M75.345 127.011C74.6342 127.011 73.9234 126.302 73.9234 125.592V113.766H58.9965V125.592C58.9965 126.302 58.2857 127.011 57.5749 127.011C56.8641 127.011 56.1533 126.302 56.1533 125.592V112.347C56.1533 112.347 56.1533 112.181 56.1533 112.11C56.2955 111.495 56.9115 110.928 57.5512 110.928H75.3213C75.961 110.928 76.577 111.495 76.7192 112.11C76.7192 112.181 76.7192 112.276 76.7192 112.347V125.592C76.9561 126.302 76.2453 127.011 75.2976 127.011H75.345Z" fill="#EEA016"></path><path d="M81.2686 124.174H51.6519C49.9933 124.174 48.5717 124.647 47.3871 125.829C46.4393 127.012 45.7285 128.431 45.7285 130.087C45.7285 133.398 48.3348 136 51.6519 136H81.2686C82.9271 136 84.3487 135.29 85.5334 134.344C86.4811 133.162 87.1919 131.743 87.1919 130.087C87.1919 126.776 84.5857 124.174 81.2686 124.174ZM81.2686 133.162H51.6519C49.9933 133.162 48.5717 131.743 48.5717 130.087C48.5717 129.377 49.0456 128.431 49.5195 127.958C50.2303 127.249 50.9411 127.012 51.6519 127.012H81.2686C82.9271 127.012 84.3487 128.431 84.3487 130.087C84.3487 130.796 83.8749 131.743 83.401 132.216C82.6902 132.925 81.9794 133.162 81.2686 133.162Z" fill="#EEA016"></path><path d="M118.467 110.455C113.492 110.455 109.464 114.476 109.464 119.443C109.464 124.41 113.492 128.431 118.467 128.431C123.443 128.431 127.234 124.41 127.471 119.443C127.471 114.476 123.443 110.455 118.467 110.455ZM118.467 125.592C115.15 125.592 112.544 122.991 112.544 119.679C112.544 116.368 115.15 113.766 118.467 113.766C121.547 113.766 124.391 116.368 124.391 119.679C124.391 122.991 121.784 125.592 118.467 125.592Z" fill="#EEA016"></path><path d="M20.6136 115.186C14.9272 115.186 10.1885 119.916 10.1885 125.592C10.1885 131.269 14.9272 135.999 20.6136 135.999C26.3 135.999 31.0387 131.269 31.0387 125.592C31.0387 119.916 26.3 115.186 20.6136 115.186ZM20.6136 132.925C16.5857 132.925 13.2686 129.613 13.2686 125.592C13.2686 121.572 16.5857 118.26 20.6136 118.26C24.6414 118.26 27.9585 121.572 27.9585 125.592C27.9585 129.613 24.6414 132.925 20.6136 132.925Z" fill="#EEA016"></path><path d="M122.732 88.695H10.1882C9.4774 88.695 8.7666 87.9855 8.7666 87.2759V23.6516C8.7666 22.942 9.4774 22.2324 10.1882 22.2324H55.6795C55.9401 22.2324 56.2007 22.327 56.4377 22.4926C56.8168 22.7528 57.1011 23.2022 57.1011 23.6516C57.1011 24.3611 56.3903 25.0707 55.6795 25.0707H11.8467V85.6203H121.31V43.9924C121.31 43.5194 121.618 43.07 122.021 42.8098C122.234 42.6679 122.495 42.5733 122.732 42.5733C122.969 42.5733 123.229 42.6679 123.443 42.8098C123.845 43.07 124.153 43.5194 124.153 43.9924V87.0394C124.39 87.9855 123.679 88.695 122.732 88.695Z" fill="#EEA016"></path><path d="M133.157 41.6279V97.2105C133.157 97.518 133.133 97.8255 133.109 98.133C133.086 98.3931 133.038 98.6297 133.015 98.8898C132.92 99.3392 132.801 99.7886 132.659 100.214C132.588 100.427 132.493 100.664 132.399 100.877C132.328 101.066 132.233 101.279 132.138 101.468C131.095 103.455 129.366 105.039 127.305 105.867C126.878 106.009 126.428 106.151 125.978 106.246C125.385 106.364 124.769 106.435 124.153 106.435H9.00348C8.38746 106.435 7.77143 106.364 7.17909 106.246C6.72892 106.151 6.27875 106.033 5.85226 105.867C3.08014 104.85 0.971429 102.485 0.284321 99.5757C0.21324 99.3392 0.189547 99.1264 0.14216 98.8898C0.0947735 98.6297 0.0710801 98.3931 0.0473868 98.133C0 97.8964 0 97.6836 0 97.447V20.814C0 15.847 4.02787 11.8262 9.00348 11.8262H70.8432C71.1038 11.8262 71.3645 11.9208 71.5777 12.0863C71.9805 12.3465 72.2648 12.7959 72.2648 13.2453C72.2648 13.9549 71.554 14.6644 70.8432 14.6644H9.00348C5.68641 14.6644 2.84321 17.5027 2.84321 20.814V97.2105C2.84321 100.522 5.68641 103.36 9.00348 103.36H124.153C127.47 103.36 130.314 100.522 130.314 97.2105V41.6279C130.314 41.3677 130.408 41.1076 130.574 40.871C130.716 40.6818 130.882 40.5163 131.072 40.4217H131.095C131.285 40.2797 131.522 40.2088 131.735 40.2088C132.043 40.2088 132.351 40.3034 132.588 40.469C132.92 40.7055 133.157 41.0839 133.157 41.6279Z" fill="#EEA016"></path><path d="M87.1921 42.8104C87.9029 42.8104 88.6137 43.52 88.6137 44.2296H121.311V43.993C121.311 43.52 121.619 43.0706 122.021 42.8104H87.1921ZM87.1921 42.8104C87.9029 42.8104 88.6137 43.52 88.6137 44.2296H121.311V43.993C121.311 43.52 121.619 43.0706 122.021 42.8104H87.1921ZM87.1921 42.8104C87.9029 42.8104 88.6137 43.52 88.6137 44.2296H121.311V43.993C121.311 43.52 121.619 43.0706 122.021 42.8104H87.1921ZM87.1921 42.8104C87.9029 42.8104 88.6137 43.52 88.6137 44.2296H121.311V43.993C121.311 43.52 121.619 43.0706 122.021 42.8104H87.1921ZM87.1921 42.8104C87.9029 42.8104 88.6137 43.52 88.6137 44.2296H121.311V43.993C121.311 43.52 121.619 43.0706 122.021 42.8104H87.1921ZM87.1921 42.8104C87.9029 42.8104 88.6137 43.52 88.6137 44.2296H121.311V43.993C121.311 43.52 121.619 43.0706 122.021 42.8104H87.1921ZM87.1921 42.8104C87.9029 42.8104 88.6137 43.52 88.6137 44.2296H121.311V43.993C121.311 43.52 121.619 43.0706 122.021 42.8104H87.1921ZM133.157 27.5075C132.731 27.0344 132.257 26.6087 131.736 26.2303C131.285 25.8991 130.812 25.5917 130.314 25.3551C128.845 24.5746 127.139 24.1252 125.338 24.1252H124.865C125.101 23.1791 125.101 22.4696 125.101 21.76C125.101 19.1346 124.272 16.6984 122.851 14.6643C122.519 14.1677 122.14 13.6946 121.713 13.2452C121.239 12.7249 120.695 12.2282 120.126 11.8261C118.017 10.1941 115.364 9.22435 112.544 9.22435C110.175 9.22435 108.042 9.69739 106.147 10.88C102.593 4.25739 95.7217 0 88.1398 0C83.9935 0 80.0841 1.22991 76.8144 3.45322C73.829 5.4873 71.3886 8.34922 69.8248 11.8261C69.6827 12.1336 69.5405 12.441 69.422 12.7722V13.0087C68.6402 13.0323 67.882 13.1033 67.1475 13.2452C65.5363 13.5054 64.02 13.9784 62.5984 14.6643C59.3287 16.2017 56.6276 18.8035 54.9217 22.233C54.7795 22.5405 54.6374 22.848 54.4952 23.1791C54.4478 23.321 54.3768 23.4866 54.3531 23.6522C54.1635 24.1016 54.0213 24.5746 53.9266 25.0713C53.5238 26.4431 53.3105 27.8859 53.3105 29.3287C53.3105 38.3165 60.6555 45.6487 69.659 45.6487H125.338C127.139 45.6487 128.845 45.1757 130.314 44.3478C130.812 44.0877 131.285 43.7565 131.736 43.4254C132.067 43.1652 132.375 42.8814 132.683 42.5739C132.849 42.432 133.015 42.2664 133.157 42.1009C135.005 40.2323 136 37.607 136 34.7687C136 31.9304 134.934 29.3997 133.157 27.5075ZM131.096 40.3979H131.072C131.072 40.3979 130.883 40.5871 130.788 40.6817C130.717 40.7527 130.646 40.8237 130.575 40.871C130.48 40.9656 130.409 41.0365 130.314 41.1075C128.964 42.2428 127.258 42.8104 125.575 42.8104H69.8959C62.314 42.8104 56.3907 36.6609 56.3907 29.3287C56.3907 27.4365 56.6276 25.7809 57.3384 24.1252C57.4095 23.9597 57.4806 23.8177 57.5517 23.6522C59.7788 18.9454 64.3754 15.847 69.659 15.847C69.8959 15.847 70.1328 15.847 70.6067 15.6104C71.3175 15.847 71.7914 15.3739 72.0283 14.6643C72.0283 14.4278 72.0283 13.9548 72.2652 13.7183C72.3363 13.5527 72.3837 13.3871 72.4785 13.2452C72.668 12.7485 72.905 12.2755 73.1419 11.8261C76.1036 6.29148 81.7426 2.83826 88.1398 2.83826C94.537 2.83826 100.295 6.36243 103.422 11.8261C103.683 12.2755 103.92 12.7485 104.133 13.2452C104.18 13.3162 104.204 13.4108 104.251 13.4817C104.488 13.9548 104.725 14.1913 105.199 14.4278C105.436 14.6643 105.91 14.4278 106.384 14.1913C106.81 13.8129 107.284 13.5054 107.758 13.2452C109.132 12.4647 110.72 12.0626 112.307 12.0626C114.037 12.0626 115.648 12.4883 117.022 13.2452C117.733 13.6237 118.396 14.0967 118.965 14.6643C120.86 16.4146 122.021 18.9217 122.021 21.76C122.021 22.3986 121.95 23.0136 121.808 23.6522C121.69 24.1962 121.524 24.7638 121.311 25.3078C121.074 25.7809 121.311 26.4904 122.021 26.9635C122.14 27.2473 122.424 27.4365 122.732 27.4838C122.993 27.5548 123.23 27.5311 123.443 27.4365C124.154 27.2 124.865 27.2 125.575 27.2C127.352 27.2 128.987 27.815 130.314 28.8793C130.859 29.2577 131.357 29.7544 131.736 30.2984C132.423 31.1499 132.897 32.1197 133.157 33.1604C133.323 33.7517 133.394 34.3666 133.394 35.0052C133.394 35.6438 133.323 36.2351 133.157 36.8501C132.897 37.8671 132.423 38.8605 131.736 39.6884C131.546 39.9485 131.333 40.1614 131.096 40.3979ZM87.1921 42.8104C87.9029 42.8104 88.6137 43.52 88.6137 44.2296H121.311V43.993C121.311 43.52 121.619 43.0706 122.021 42.8104H87.1921ZM87.1921 42.8104C87.9029 42.8104 88.6137 43.52 88.6137 44.2296H121.311V43.993C121.311 43.52 121.619 43.0706 122.021 42.8104H87.1921ZM87.1921 42.8104C87.9029 42.8104 88.6137 43.52 88.6137 44.2296H121.311V43.993C121.311 43.52 121.619 43.0706 122.021 42.8104H87.1921ZM87.1921 42.8104C87.9029 42.8104 88.6137 43.52 88.6137 44.2296H121.311V43.993C121.311 43.52 121.619 43.0706 122.021 42.8104H87.1921ZM87.1921 42.8104C87.9029 42.8104 88.6137 43.52 88.6137 44.2296H121.311V43.993C121.311 43.52 121.619 43.0706 122.021 42.8104H87.1921ZM87.1921 42.8104C87.9029 42.8104 88.6137 43.52 88.6137 44.2296H121.311V43.993C121.311 43.52 121.619 43.0706 122.021 42.8104H87.1921Z" fill="#EEA016"></path><path d="M87.1918 57.4749H53.3103C53.3103 57.4749 53.1918 57.4749 53.1444 57.4512C52.481 57.3566 51.8887 56.718 51.8887 56.0558C51.8887 55.3935 52.481 54.7549 53.1444 54.6603C53.1918 54.6366 53.2629 54.6366 53.3103 54.6366H85.7702V44.2297C85.7702 43.5201 86.481 42.8105 87.1918 42.8105C87.9026 42.8105 88.6134 43.5201 88.6134 44.2297V56.0558C88.8503 56.7653 88.1395 57.4749 87.1918 57.4749Z" fill="#EEA016"></path><path d="M108.042 44.4658V69.5371C108.042 70.2467 107.331 70.9562 106.62 70.9562H72.5017C72.5017 70.9562 72.3358 70.9562 72.2647 70.9562C71.6487 70.8143 71.0801 70.1994 71.0801 69.5607C71.0801 68.9221 71.7198 68.2126 72.3832 68.1416H105.199V44.4894C105.199 44.4894 105.199 44.3239 105.222 44.2529C105.364 43.638 105.98 43.0703 106.62 43.0703C107.26 43.0703 107.876 43.638 108.018 44.2529C108.042 44.3239 108.042 44.4185 108.042 44.4894V44.4658Z" fill="#EEA016"></path><path d="M54.5897 54.6357C53.9263 51.2771 50.9173 48.7227 47.3869 48.7227C43.3591 48.7227 40.042 52.034 40.042 56.0548C40.042 60.0757 43.3591 63.387 47.3869 63.387C50.9173 63.387 53.9263 60.8326 54.5897 57.474C54.6845 57.0246 54.7319 56.5515 54.7319 56.0548C54.7319 55.5581 54.6845 55.0851 54.5897 54.6357ZM47.3869 60.5487C44.7807 60.5487 42.8852 58.42 42.8852 56.0548C42.8852 53.4531 45.0176 51.5609 47.3869 51.5609C49.7563 51.5609 51.8887 53.4531 51.8887 56.0548C51.8887 58.6566 49.7563 60.5487 47.3869 60.5487Z" fill="#EEA016"></path><path d="M73.7811 68.1181C73.1177 64.7595 70.1087 62.2051 66.5783 62.2051C62.5505 62.2051 59.2334 65.5164 59.2334 69.5373C59.2334 73.5581 62.5505 76.8694 66.5783 76.8694C70.1087 76.8694 73.1177 74.315 73.7811 70.9564C73.8759 70.507 73.9233 70.0339 73.9233 69.5373C73.9233 69.0406 73.8759 68.5675 73.7811 68.1181ZM66.5783 74.0312C63.9721 74.0312 62.0766 71.9025 62.0766 69.5373C62.0766 66.9355 64.209 65.0433 66.5783 65.0433C68.9477 65.0433 71.0801 66.9355 71.0801 69.5373C71.0801 72.139 68.9477 74.0312 66.5783 74.0312Z" fill="#EEA016"></path><path d="M33.882 32.4035C33.882 33.1131 33.1712 33.8226 32.4604 33.8226H19.1921C18.4813 33.8226 17.7705 33.1131 17.7705 32.4035C17.7705 31.6939 18.4813 30.9844 19.1921 30.9844H32.4604C33.1712 30.9844 33.882 31.6939 33.882 32.4035Z" fill="#EEA016"></path><path d="M33.882 39.9719C33.882 40.6814 33.1712 41.391 32.4604 41.391H19.1921C18.4813 41.391 17.7705 40.6814 17.7705 39.9719C17.7705 39.2623 18.4813 38.5527 19.1921 38.5527H32.4604C33.1712 38.5527 33.882 39.2623 33.882 39.9719Z" fill="#EEA016"></path><path d="M33.882 47.3039C33.882 48.0135 33.1712 48.723 32.4604 48.723H19.1921C18.4813 48.723 17.7705 48.0135 17.7705 47.3039C17.7705 46.5943 18.4813 45.8848 19.1921 45.8848H32.4604C33.1712 45.8848 33.882 46.5943 33.882 47.3039Z" fill="#EEA016"></path></g><defs><clipPath id="clip0_1293_4935"><rect width="136" height="136" fill="white"></rect></clipPath></defs></svg>